:FULLY-SPECIFIED
:FORCE-ALL-JOINTS-BE-3DOF
:DEGREES
815
root 2.06011 16.5849 22.9585 4.3052 0.168864 -6.92815
lfemur -36.498 -1.1441 1.95658
ltibia 21.8959 -0 0
lfoot -9.25257 11.9652 0.248408
ltoes 17.7646 -0 0
rfemur 3.2462 4.81618 21.6585
rtibia 21.9258 -0 0
rfoot -21.6085 -12.5826 0.00345602
rtoes -25.0565 0 0
lowerback 0.225398 6.53569 5.53577
upperback -0.309675 8.73326 -0.250101
thorax 0.420616 4.3728 -3.22316
lowerneck -5.57947 -1.78716 2.99742
upperneck 0.0151058 -2.59656 1.52803
head 0.916996 -1.26537 -0.0889159
lclavicle -1.422e-14 4.55051e-16 3.32305e-31
lhumerus -53.6426 -6.46562 90.7852
lradius 54.0317 -0 0
lwrist 19.3723 0 0
lhand -7.97187 5.24132 0.0107477
lfingers 7.12502 -0 0
lthumb 17.9352 34.4237 0.00779093
rclavicle -1.422e-14 4.55051e-16 3.32305e-31
rhumerus -30.3995 45.195 -109.531
rradius 67.8166 -0 0
rwrist -1.59003 0 0
rhand -9.27929 -23.4479 0.0908123
rfingers 7.12502 -0 0
rthumb 16.674 -52.6846 0.0998937
816
root 2.08834 16.5815 23.103 4.40265 -1.35854 -7.14285
lfemur -36.269 -1.03609 2.56503
ltibia 20.1991 -0 0
lfoot -8.72236 12.9692 0.174134
ltoes 18.1922 -0 0
rfemur 4.1144 5.37845 21.8349
rtibia 20.9153 -0 0
rfoot -21.5313 -12.486 0.00242399
rtoes -25.3596 0 0
lowerback 0.156358 6.64333 5.67808
upperback -0.311515 8.87326 -0.165255
thorax 0.476564 4.4435 -3.20344
lowerneck -5.55427 -1.6733 3.10792
upperneck 0.0892953 -2.4518 1.46397
head 0.933087 -1.19355 -0.123889
lclavicle -9.52767e-15 3.02223e-16 2.33076e-31
lhumerus -53.5563 -6.36101 90.6886
lradius 53.3666 -0 0
lwrist 19.064 0 0
lhand -7.69974 5.32652 0.007538
lfingers 7.12502 -0 0
lthumb 18.1972 34.4878 0.00546427
rclavicle -9.52767e-15 3.02223e-16 2.33076e-31
rhumerus -30.1216 45.1855 -109.175
rradius 67.5404 -0 0
rwrist -1.888 0 0
rhand -8.57137 -23.1719 0.063675
rfingers 7.12502 -0 0
rthumb 17.3565 -52.3696 0.0700431
817
root 2.11162 16.5787 23.2222 4.4874 -2.61802 -7.32203
lfemur -36.0793 -0.94884 3.06714
ltibia 18.7996 -0 0
lfoot -8.28617 13.7966 0.105908
ltoes 18.5448 -0 0
rfemur 4.83227 5.84006 21.987
rtibia 20.0819 -0 0
rfoot -21.4676 -12.4064 0.00147493
rtoes -25.6095 0 0
lowerback 0.0996122 6.73222 5.79538
upperback -0.312875 8.98872 -0.0952609
thorax 0.522728 4.5018 -3.18712
lowerneck -5.53333 -1.57942 3.19909
upperneck 0.150352 -2.33236 1.41128
head 0.946324 -1.13432 -0.152716
lclavicle -5.65783e-15 1.76182e-16 1.41823e-31
lhumerus -53.4853 -6.27464 90.609
lradius 52.8181 -0 0
lwrist 18.8097 0 0
lhand -7.47532 5.39676 0.00458652
lfingers 7.12502 -0 0
lthumb 18.4133 34.5407 0.00332477
rclavicle -5.65783e-15 1.76182e-16 1.41823e-31
rhumerus -29.8925 45.1767 -108.881
rradius 67.3126 -0 0
rwrist -2.13372 0 0
rhand -7.98781 -22.9445 0.0387375
rfingers 7.12502 -0 0
rthumb 17.919 -52.1102 0.0426118
818
root 2.12919 16.5766 23.3122 4.55403 -3.56833 -7.45862
lfemur -35.9356 -0.884091 3.4463
ltibia 17.7435 -0 0
lfoot -7.9576 14.4208 0.0502404
ltoes 18.811 -0 0
rfemur 5.37537 6.18722 22.1057
rtibia 19.4529 -0 0
rfoot -21.4196 -12.3463 0.000699998
rtoes -25.7982 0 0
lowerback 0.0568983 6.79939 5.88386
upperback -0.313808 9.07586 -0.0424198
thorax 0.557584 4.54579 -3.17477
lowerneck -5.51743 -1.5086 3.26791
upperneck 0.196358 -2.24217 1.3716
head 0.956295 -1.08961 -0.174464
lclavicle -2.73699e-15 8.10506e-17 6.73098e-32
lhumerus -53.4317 -6.20938 90.549
lradius 52.4041 -0 0
lwrist 18.6177 0 0
lhand -7.30595 5.44977 0.00217688
lfingers 7.12502 -0 0
lthumb 18.5764 34.5806 0.00157789
rclavicle -2.73699e-15 8.10506e-17 6.73098e-32
rhumerus -29.7197 45.1696 -108.66
rradius 67.1406 -0 0
rwrist -2.3192 0 0
rhand -7.54741 -22.7731 0.0183824
rfingers 7.12502 -0 0
rthumb 18.3435 -51.9145 0.020221
819
root 2.14029 16.5753 23.3691 4.59734 -4.16865 -7.54557
lfemur -35.8447 -0.843674 3.68593
ltibia 17.0762 -0 0
lfoot -7.75038 14.8149 0.0132352
ltoes 18.9792 -0 0
rfemur 5.71898 6.40593 22.1824
rtibia 19.0555 -0 0
rfoot -21.3892 -12.3083 0.000184437
rtoes -25.9174 0 0
lowerback 0.0299647 6.84185 5.93974
upperback -0.314355 9.13091 -0.00903146
thorax 0.579611 4.57357 -3.16696
lowerneck -5.50734 -1.46386 3.3114
upperneck 0.225388 -2.18518 1.34658
head 0.962585 -1.06136 -0.188199
lclavicle -8.91698e-16 2.09495e-17 1.77352e-32
lhumerus -53.398 -6.16813 90.5112
lradius 52.1425 -0 0
lwrist 18.4965 0 0
lhand -7.19893 5.48326 0.000573571
lfingers 7.12502 -0 0
lthumb 18.6795 34.6058 0.00041578
rclavicle -8.91698e-16 2.09495e-17 1.77352e-32
rhumerus -29.6105 45.1648 -108.52
rradius 67.032 -0 0
rwrist -2.43638 0 0
rhand -7.2692 -22.6649 0.00484311
rfingers 7.12502 -0 0
rthumb 18.6117 -51.791 0.00532752
820
root 2.14416 16.5748 23.3889 4.61266 -4.37788 352.424
lfemur -35.8129 -0.829675 3.76948
ltibia 16.8436 0 0
lfoot -7.6782 14.9523 0
ltoes 19.0378 0 0
rfemur 5.83887 6.48206 22.2095
rtibia 18.917 0 0
rfoot -21.3786 -12.2951 0
rtoes -25.9589 0 0
lowerback 0.0205861 6.85666 5.95921
upperback -0.314538 9.1501 0.00260752
thorax 0.58729 4.58326 -3.16423
lowerneck -5.50381 -1.44827 3.32656
upperneck 0.235501 -2.16531 1.33786
head 0.964776 -1.05151 -0.192986
lclavicle -2.48481e-16 0 0
lhumerus -53.3862 -6.15374 90.498
lradius 52.0513 0 0
lwrist 18.4542 0 0
lhand -7.16163 5.49493 0
lfingers 7.12502 0 0
lthumb 18.7154 34.6146 0
rclavicle -2.48481e-16 0 0
rhumerus -29.5725 45.1631 -108.471
rradius 66.9941 0 0
rwrist -2.47723 0 0
rhand -7.17223 -22.6272 0
rfingers 7.12502 0 0
rthumb 18.7052 -771.748 0
821
root 2.15375 16.5727 23.4143 4.55264 -4.35591 -7.54794
lfemur -35.7665 -0.827289 3.67408
ltibia 16.9604 -0 0
lfoot -7.65135 14.8062 -0.00523012
ltoes 18.9006 -0 0
rfemur 5.72988 6.41101 22.0832
rtibia 19.2756 -0 0
rfoot -21.0822 -12.1227 0.0724707
rtoes -25.9427 0 0
lowerback 0.0123082 6.84799 5.92762
upperback -0.317208 9.13794 0.00898577
thorax 0.583104 4.57699 -3.14063
lowerneck -5.50863 -1.46125 3.32491
upperneck 0.291588 -2.18412 1.33795
head 0.984215 -1.05989 -0.19433
lclavicle -4.97875e-17 -6.02299e-17 1.57508e-32
lhumerus -53.3994 -6.13994 90.4667
lradius 52.0607 -0 0
lwrist 18.4461 0 0
lhand -7.14665 5.48853 -0.00012614
lfingers 7.12502 -0 0
lthumb 18.7298 34.6067 -0.000149431
rclavicle -4.97875e-17 -6.02299e-17 1.57508e-32
rhumerus -29.5573 45.0248 -108.245
rradius 66.9186 -0 0
rwrist -2.41602 0 0
rhand -7.33442 -22.6444 0.00372657
rfingers 7.12502 -0 0
rthumb 18.5487 -51.7704 0.00467994
822
root 2.18125 16.5668 23.4873 4.38053 -4.29272 -7.46758
lfemur -35.6335 -0.820015 3.40042
ltibia 17.2954 -0 0
lfoot -7.57425 14.3871 -0.019853
ltoes 18.5072 -0 0
rfemur 5.41821 6.20588 21.7216
rtibia 20.3046 -0 0
rfoot -20.2306 -11.6261 0.275444
rtoes -25.8964 0 0
lowerback -0.0114139 6.82308 5.83699
upperback -0.324876 9.10304 0.0272862
thorax 0.571081 4.55901 -3.07291
lowerneck -5.52246 -1.49848 3.32019
upperneck 0.452496 -2.23809 1.3381
head 1.03999 -1.08393 -0.198201
lclavicle 5.20235e-16 -2.33021e-16 5.97782e-32
lhumerus -53.4373 -6.10037 90.377
lradius 52.0877 -0 0
lwrist 18.4229 0 0
lhand -7.10368 5.47018 -0.000478743
lfingers 7.12502 -0 0
lthumb 18.7711 34.5841 -0.00056714
rclavicle 5.20235e-16 -2.33021e-16 5.97782e-32
rhumerus -29.5182 44.6277 -107.601
rradius 66.7019 -0 0
rwrist -2.24043 0 0
rhand -7.79966 -22.6937 0.0141462
rfingers 7.12502 -0 0
rthumb 18.0999 -51.8347 0.017765
